<svg width="1280" height="760" viewBox="0 0 1280 760" xmlns="http://www.w3.org/2000/svg" role="img" aria-label="LOD Workbench web UI preview">
  <defs>
    <linearGradient id="bg" x1="0" y1="0" x2="1" y2="1">
      <stop offset="0%" stop-color="#f8fafc"/>
      <stop offset="100%" stop-color="#eef2ff"/>
    </linearGradient>
    <linearGradient id="panel" x1="0" y1="0" x2="0" y2="1">
      <stop offset="0%" stop-color="#ffffff"/>
      <stop offset="100%" stop-color="#f8fafc"/>
    </linearGradient>
    <filter id="shadow" x="-20%" y="-20%" width="140%" height="140%">
      <feDropShadow dx="0" dy="10" stdDeviation="20" flood-color="#94a3b8" flood-opacity="0.18"/>
    </filter>
    <style>
      .t { font-family: Inter, Segoe UI, Arial, sans-serif; fill: #1f2937; }
      .m { fill: #64748b; font-size: 16px; }
      .s { fill: #0f172a; font-size: 18px; font-weight: 700; }
      .xs { fill: #64748b; font-size: 13px; }
    </style>
  </defs>

  <rect width="1280" height="760" fill="url(#bg)"/>
  <rect x="32" y="28" width="1216" height="704" rx="20" fill="url(#panel)" filter="url(#shadow)"/>

  <rect x="32" y="28" width="1216" height="64" rx="20" fill="#ffffff"/>
  <text x="62" y="68" class="t" font-size="22" font-weight="700">LOD Workbench</text>
  <rect x="214" y="44" width="52" height="24" rx="8" fill="#eef2ff"/>
  <text x="228" y="61" class="t" font-size="13" font-weight="700" fill="#4f46e5">RDF</text>
  <circle cx="1187" cy="60" r="4" fill="#22c55e"/>
  <text x="1200" y="65" class="t xs">Connected</text>

  <rect x="32" y="92" width="300" height="640" rx="0" fill="#fbfdff" stroke="#e2e8f0"/>
  <text x="50" y="126" class="t xs">Input</text>
  <rect x="96" y="108" width="76" height="28" rx="6" fill="#f8fafc" stroke="#cbd5e1"/>
  <text x="112" y="126" class="t xs">Turtle</text>
  <rect x="48" y="152" width="76" height="26" rx="6" fill="#ffffff" stroke="#e2e8f0"/>
  <text x="66" y="170" class="t xs">Reset</text>
  <rect x="132" y="152" width="78" height="26" rx="6" fill="#ffffff" stroke="#e2e8f0"/>
  <text x="150" y="170" class="t xs">Open</text>
  <rect x="48" y="186" width="246" height="24" rx="5" fill="#dbeafe"/>
  <text x="58" y="202" class="t xs" fill="#1d4ed8">transport-example.ttl</text>
  <rect x="48" y="226" width="246" height="470" rx="12" fill="#f8fafc" stroke="#e2e8f0"/>
  <text x="58" y="252" class="t xs">@prefix ex: &lt;https://example.org/transport/&gt; .</text>
  <text x="58" y="278" class="t xs">@prefix schema: &lt;https://schema.org/&gt; .</text>
  <text x="58" y="304" class="t xs">ex:route-42 a schema:BusTrip ;</text>
  <text x="58" y="330" class="t xs">  schema:name "Airport Express"@en ;</text>
  <text x="58" y="356" class="t xs">  schema:distance "12.4"^^xsd:decimal ;</text>
  <text x="58" y="382" class="t xs">  schema:amenityFeature ( "Wi-Fi" ... ) .</text>

  <rect x="350" y="92" width="896" height="50" fill="#ffffff" stroke="#e2e8f0"/>
  <text x="392" y="124" class="t xs" fill="#4f46e5">Inspect</text>
  <text x="536" y="124" class="t xs">Validate</text>
  <text x="690" y="124" class="t xs">Convert</text>
  <text x="862" y="124" class="t xs">Visualize</text>
  <line x1="827" y1="140" x2="944" y2="140" stroke="#4f46e5" stroke-width="3"/>

  <rect x="370" y="164" width="112" height="68" rx="14" fill="#ecfeff"/>
  <text x="408" y="195" class="t" font-size="28" font-weight="700">64</text>
  <text x="402" y="215" class="t xs">triples</text>
  <rect x="494" y="164" width="112" height="68" rx="14" fill="#eef2ff"/>
  <text x="530" y="195" class="t" font-size="28" font-weight="700">10</text>
  <text x="520" y="215" class="t xs">subjects</text>
  <rect x="618" y="164" width="112" height="68" rx="14" fill="#f0fdf4"/>
  <text x="656" y="195" class="t" font-size="28" font-weight="700">18</text>
  <text x="646" y="215" class="t xs">predicates</text>
  <rect x="742" y="164" width="112" height="68" rx="14" fill="#fff7ed"/>
  <text x="782" y="195" class="t" font-size="28" font-weight="700">36</text>
  <text x="772" y="215" class="t xs">objects</text>

  <rect x="370" y="256" width="852" height="444" rx="18" fill="#ffffff" stroke="#e2e8f0"/>
  <path d="M 620 460 L 700 350 L 816 392 L 910 290 L 1018 360 L 910 468 L 792 530 L 684 520 Z" fill="none" stroke="#cbd5e1" stroke-width="3"/>
  <path d="M 700 350 L 630 300 M 700 350 L 790 320 M 816 392 L 890 360 M 910 290 L 1000 252 M 910 468 L 1032 484" fill="none" stroke="#cbd5e1" stroke-width="3"/>
  <circle cx="620" cy="460" r="28" fill="#4f46e5"/>
  <circle cx="700" cy="350" r="24" fill="#4f46e5"/>
  <circle cx="816" cy="392" r="24" fill="#4f46e5"/>
  <circle cx="910" cy="290" r="24" fill="#d97706"/>
  <circle cx="1018" cy="360" r="28" fill="#059669"/>
  <circle cx="910" cy="468" r="28" fill="#059669"/>
  <circle cx="792" cy="530" r="28" fill="#059669"/>
  <circle cx="684" cy="520" r="28" fill="#059669"/>
  <rect x="570" y="405" width="100" height="32" rx="16" fill="#ffffff" stroke="#cbd5e1"/>
  <text x="593" y="426" class="t xs">route-42</text>
  <rect x="740" y="332" width="116" height="32" rx="16" fill="#ffffff" stroke="#cbd5e1"/>
  <text x="760" y="353" class="t xs">BusTrip</text>
  <rect x="980" y="344" width="130" height="32" rx="16" fill="#ffffff" stroke="#cbd5e1"/>
  <text x="1000" y="365" class="t xs">Airport Express</text>
  <rect x="1070" y="450" width="128" height="32" rx="16" fill="#ffffff" stroke="#cbd5e1"/>
  <text x="1090" y="471" class="t xs">Metro Transit</text>
  <rect x="770" y="494" width="108" height="32" rx="16" fill="#ffffff" stroke="#cbd5e1"/>
  <text x="789" y="515" class="t xs">Wi-Fi</text>

  <rect x="1148" y="460" width="36" height="36" rx="8" fill="#ffffff" stroke="#cbd5e1"/>
  <text x="1158" y="483" class="t xs" font-size="18">+</text>
  <rect x="1148" y="502" width="36" height="36" rx="8" fill="#ffffff" stroke="#cbd5e1"/>
  <text x="1158" y="525" class="t xs" font-size="18">-</text>
  <rect x="1148" y="544" width="36" height="36" rx="8" fill="#ffffff" stroke="#cbd5e1"/>
  <text x="1156" y="567" class="t xs" font-size="18">⤢</text>

  <text x="392" y="732" class="t xs">Live inspect, validate, convert, and visualize RDF in one workspace.</text>
</svg>
